<svg xmlns="http://www.w3.org/2000/svg" viewBox="0 0 100 100" fill="none">
  <!-- Body: narrower rectangle -->
  <g stroke="#94a3b8" stroke-width="5.5" stroke-linecap="round" stroke-linejoin="round" fill="none">
    <circle cx="50" cy="11" r="9"/>
    <path d="M45 19 Q50 22 55 19" stroke-width="2.5"/>
    <rect x="28" y="22" width="44" height="41" rx="8"/>
    <line x1="28" y1="33" x2="10" y2="52"/>
    <line x1="72" y1="33" x2="90" y2="52"/>
    <line x1="38" y1="63" x2="35" y2="87"/>
    <line x1="62" y1="63" x2="65" y2="87"/>
    <line x1="31" y1="87" x2="39" y2="87"/>
    <line x1="61" y1="87" x2="69" y2="87"/>
  </g>
  <!-- IV: bolus bag + catheter tip at right mid-arm -->
  <g stroke="#1e40af" stroke-linecap="round" stroke-linejoin="round" fill="none">
    <rect x="75" y="2" width="20" height="14" rx="3" stroke-width="3.5" fill="#bfdbfe"/>
    <line x1="85" y1="2" x2="85" y2="0" stroke-width="3"/>
    <text x="85" y="12" text-anchor="middle" font-size="8" font-weight="800"
          fill="#1e40af" font-family="system-ui,sans-serif" stroke="none">IV</text>
    <line x1="85" y1="16" x2="85" y2="21" stroke-width="3"/>
    <rect x="82" y="21" width="6" height="8" rx="1.5" stroke-width="3"/>
    <path d="M85 29 C88 36 87 40 85 44" stroke-width="2.5"/>
    <line x1="92" y1="40" x2="86" y2="44" stroke-width="3.5"/>
  </g>
</svg>
